<svg width="35" height="22" viewBox="0 0 35 22" fill="none" xmlns="http://www.w3.org/2000/svg">
<path id="Arrow_Right" fill-rule="evenodd" clip-rule="evenodd" d="M0.0320006 10.6633C0.059001 10.7973 0.11 10.9273 0.213 11.0303L9.949 20.7973C10.226 21.0763 10.674 21.0763 10.95 20.7973C11.227 20.5183 11.227 20.0653 10.95 19.7853L2.391 11.2033L34.3 11.2033C34.687 11.2033 35 10.8903 35 10.5033C35 10.1163 34.687 9.80325 34.3 9.80325L2.391 9.80325L10.95 1.22125C11.227 0.941252 11.227 0.488253 10.95 0.209254C10.674 -0.0697458 10.226 -0.0697458 9.949 0.209254L0.213 9.97625C0.11 10.0793 0.059001 10.2093 0.0320006 10.3433C0.0199995 10.3963 -9.23206e-07 10.4463 -9.18223e-07 10.5033C-9.1324e-07 10.5603 0.0199995 10.6103 0.0320006 10.6633Z" fill="white"/>
</svg>
