<svg width="35" height="22" viewBox="0 0 35 22" fill="none" xmlns="http://www.w3.org/2000/svg">
<path id="Arrow_Right" fill-rule="evenodd" clip-rule="evenodd" d="M34.968 10.3432C34.941 10.2092 34.89 10.0792 34.787 9.97625L25.051 0.20925C24.774 -0.06975 24.326 -0.06975 24.05 0.20925C23.773 0.48825 23.773 0.94125 24.05 1.22125L32.609 9.80325H0.7C0.313 9.80325 0 10.1163 0 10.5033C0 10.8903 0.313 11.2032 0.7 11.2032H32.609L24.05 19.7852C23.773 20.0653 23.773 20.5182 24.05 20.7972C24.326 21.0762 24.774 21.0762 25.051 20.7972L34.787 11.0303C34.89 10.9273 34.941 10.7972 34.968 10.6632C34.98 10.6102 35 10.5603 35 10.5033C35 10.4462 34.98 10.3962 34.968 10.3432Z" fill="#EF84A7"/>
</svg>
