<svg width="133" height="36" viewBox="0 0 133 36" fill="none" xmlns="http://www.w3.org/2000/svg">
<circle cx="8" cy="8" r="8" fill="#F5B3C9"/>
<circle cx="8" cy="28" r="8" fill="#5856BB"/>
<circle cx="28" cy="8" r="8" fill="#9E9DFB"/>
<circle cx="28" cy="28" r="8" fill="#F5B3C9"/>
<path d="M62.128 27.288C63.408 27.288 64.552 27.072 65.56 26.64C66.584 26.208 67.448 25.64 68.152 24.936C68.856 24.216 69.36 23.432 69.664 22.584L66.736 21.216C66.384 22.112 65.808 22.856 65.008 23.448C64.224 24.024 63.264 24.312 62.128 24.312C61.008 24.312 60.024 24.048 59.176 23.52C58.328 22.992 57.664 22.264 57.184 21.336C56.704 20.392 56.464 19.296 56.464 18.048C56.464 16.8 56.704 15.712 57.184 14.784C57.664 13.84 58.328 13.112 59.176 12.6C60.024 12.072 61.008 11.808 62.128 11.808C63.264 11.808 64.224 12.104 65.008 12.696C65.808 13.272 66.384 14.008 66.736 14.904L69.664 13.536C69.36 12.688 68.856 11.912 68.152 11.208C67.448 10.488 66.584 9.912 65.56 9.48C64.552 9.048 63.408 8.832 62.128 8.832C60.848 8.832 59.664 9.064 58.576 9.528C57.488 9.976 56.544 10.616 55.744 11.448C54.944 12.264 54.32 13.24 53.872 14.376C53.424 15.496 53.2 16.72 53.2 18.048C53.2 19.376 53.424 20.608 53.872 21.744C54.32 22.864 54.944 23.84 55.744 24.672C56.544 25.504 57.488 26.152 58.576 26.616C59.664 27.064 60.848 27.288 62.128 27.288Z" fill="white"/>
<path d="M77.6995 27.288C78.9635 27.288 80.1155 27 81.1555 26.424C82.1955 25.832 83.0275 25.024 83.6515 24C84.2755 22.96 84.5875 21.784 84.5875 20.472C84.5875 19.16 84.2755 17.992 83.6515 16.968C83.0435 15.944 82.2195 15.136 81.1795 14.544C80.1395 13.952 78.9795 13.656 77.6995 13.656C76.4035 13.656 75.2355 13.952 74.1955 14.544C73.1555 15.136 72.3235 15.944 71.6995 16.968C71.0915 17.992 70.7875 19.16 70.7875 20.472C70.7875 21.784 71.0915 22.952 71.6995 23.976C72.3235 25 73.1555 25.808 74.1955 26.4C75.2515 26.992 76.4195 27.288 77.6995 27.288ZM77.6995 24.408C76.9955 24.408 76.3635 24.24 75.8035 23.904C75.2595 23.568 74.8275 23.104 74.5075 22.512C74.2035 21.904 74.0515 21.224 74.0515 20.472C74.0515 19.72 74.2035 19.048 74.5075 18.456C74.8275 17.864 75.2595 17.4 75.8035 17.064C76.3635 16.712 76.9955 16.536 77.6995 16.536C78.4035 16.536 79.0195 16.712 79.5475 17.064C80.0915 17.4 80.5155 17.864 80.8195 18.456C81.1395 19.048 81.2995 19.72 81.2995 20.472C81.2995 21.224 81.1395 21.904 80.8195 22.512C80.5155 23.104 80.0915 23.568 79.5475 23.904C79.0195 24.24 78.4035 24.408 77.6995 24.408Z" fill="white"/>
<path d="M86.4718 27H89.6158V8.832H86.4718V27Z" fill="white"/>
<path d="M98.2106 27.288C99.5386 27.288 100.699 26.992 101.691 26.4C102.699 25.792 103.403 25.024 103.803 24.096L101.259 22.848C100.971 23.344 100.571 23.752 100.059 24.072C99.5626 24.376 98.9546 24.528 98.2346 24.528C97.2906 24.528 96.4986 24.24 95.8586 23.664C95.2186 23.088 94.8506 22.32 94.7546 21.36H104.163C104.227 21.184 104.267 20.984 104.283 20.76C104.315 20.52 104.331 20.28 104.331 20.04C104.331 18.872 104.083 17.808 103.587 16.848C103.091 15.888 102.371 15.12 101.427 14.544C100.483 13.952 99.3306 13.656 97.9706 13.656C96.7546 13.656 95.6506 13.952 94.6586 14.544C93.6826 15.136 92.9066 15.944 92.3306 16.968C91.7706 17.976 91.4906 19.136 91.4906 20.448C91.4906 21.712 91.7706 22.864 92.3306 23.904C92.8906 24.944 93.6746 25.768 94.6826 26.376C95.6906 26.984 96.8666 27.288 98.2106 27.288ZM97.9706 16.248C98.8026 16.248 99.4906 16.504 100.035 17.016C100.595 17.512 100.907 18.16 100.971 18.96H94.8266C95.0026 18.096 95.3706 17.432 95.9306 16.968C96.5066 16.488 97.1866 16.248 97.9706 16.248Z" fill="white"/>
<path d="M112.598 27.288C113.862 27.288 115.014 27 116.054 26.424C117.094 25.832 117.926 25.024 118.55 24C119.174 22.96 119.486 21.784 119.486 20.472C119.486 19.16 119.174 17.992 118.55 16.968C117.942 15.944 117.118 15.136 116.078 14.544C115.038 13.952 113.878 13.656 112.598 13.656C111.302 13.656 110.134 13.952 109.094 14.544C108.054 15.136 107.222 15.944 106.598 16.968C105.99 17.992 105.686 19.16 105.686 20.472C105.686 21.784 105.99 22.952 106.598 23.976C107.222 25 108.054 25.808 109.094 26.4C110.15 26.992 111.318 27.288 112.598 27.288ZM112.598 24.408C111.894 24.408 111.262 24.24 110.702 23.904C110.158 23.568 109.726 23.104 109.406 22.512C109.102 21.904 108.95 21.224 108.95 20.472C108.95 19.72 109.102 19.048 109.406 18.456C109.726 17.864 110.158 17.4 110.702 17.064C111.262 16.712 111.894 16.536 112.598 16.536C113.302 16.536 113.918 16.712 114.446 17.064C114.99 17.4 115.414 17.864 115.718 18.456C116.038 19.048 116.198 19.72 116.198 20.472C116.198 21.224 116.038 21.904 115.718 22.512C115.414 23.104 114.99 23.568 114.446 23.904C113.918 24.24 113.302 24.408 112.598 24.408Z" fill="white"/>
<path d="M126.338 27.288C127.33 27.288 128.194 27.12 128.93 26.784C129.666 26.448 130.242 25.984 130.658 25.392C131.074 24.784 131.282 24.088 131.282 23.304C131.282 22.392 130.994 21.608 130.418 20.952C129.842 20.296 129.01 19.816 127.922 19.512L125.834 18.888C125.386 18.76 125.018 18.592 124.73 18.384C124.442 18.176 124.298 17.888 124.298 17.52C124.298 17.136 124.45 16.824 124.754 16.584C125.058 16.344 125.474 16.224 126.002 16.224C126.658 16.224 127.25 16.4 127.778 16.752C128.322 17.104 128.698 17.576 128.906 18.168L131.306 17.04C130.906 15.984 130.234 15.16 129.29 14.568C128.346 13.96 127.258 13.656 126.026 13.656C125.082 13.656 124.242 13.824 123.506 14.16C122.786 14.496 122.218 14.968 121.802 15.576C121.402 16.168 121.202 16.864 121.202 17.664C121.202 18.56 121.482 19.336 122.042 19.992C122.618 20.648 123.458 21.136 124.562 21.456L126.698 22.056C127.114 22.168 127.466 22.336 127.754 22.56C128.058 22.768 128.21 23.056 128.21 23.424C128.21 23.856 128.034 24.2 127.682 24.456C127.346 24.696 126.898 24.816 126.338 24.816C125.602 24.816 124.938 24.608 124.346 24.192C123.754 23.776 123.282 23.2 122.93 22.464L120.578 23.592C120.962 24.712 121.666 25.608 122.69 26.28C123.73 26.952 124.946 27.288 126.338 27.288Z" fill="white"/>
</svg>
