<svg width="61" height="16" viewBox="0 0 61 16" fill="none" xmlns="http://www.w3.org/2000/svg">
<g id="PayPal 1" clip-path="url(#clip0_173_770)">
<path id="Vector" d="M22.739 3.27226H19.4229C19.196 3.27226 19.003 3.43712 18.9676 3.66114L17.6264 12.1645C17.5997 12.3323 17.7297 12.4835 17.8999 12.4835H19.483C19.7099 12.4835 19.9029 12.3187 19.9383 12.0942L20.3 9.80069C20.3349 9.5762 20.5284 9.41134 20.7549 9.41134H21.8046C23.989 9.41134 25.2497 8.3543 25.5789 6.25961C25.7273 5.34319 25.5852 4.62314 25.1561 4.11886C24.6848 3.56513 23.8489 3.27226 22.739 3.27226ZM23.1216 6.37792C22.9402 7.56782 22.0311 7.56782 21.152 7.56782H20.6516L21.0026 5.34561C21.0235 5.2113 21.1399 5.11238 21.2756 5.11238H21.505C22.1038 5.11238 22.6687 5.11238 22.9606 5.45374C23.1346 5.65739 23.188 5.95996 23.1216 6.37792Z" fill="#2D3F54"/>
<path id="Vector_2" d="M32.6509 6.33942H31.0629C30.9276 6.33942 30.8107 6.43834 30.7899 6.57265L30.7196 7.0168L30.6085 6.85582C30.2648 6.35688 29.4982 6.19008 28.733 6.19008C26.9782 6.19008 25.4795 7.51914 25.1876 9.3835C25.0358 10.3135 25.2516 11.2028 25.7791 11.8229C26.263 12.3932 26.9555 12.6307 27.7793 12.6307C29.1932 12.6307 29.9772 11.7216 29.9772 11.7216L29.9064 12.1628C29.8798 12.3316 30.0097 12.4829 30.1789 12.4829H31.6093C31.8367 12.4829 32.0288 12.318 32.0646 12.0935L32.9229 6.65847C32.95 6.49119 32.8206 6.33942 32.6509 6.33942ZM30.4374 9.43005C30.2842 10.3373 29.5641 10.9463 28.6457 10.9463C28.1846 10.9463 27.8161 10.7984 27.5795 10.5181C27.3448 10.2398 27.2556 9.84365 27.3303 9.40241C27.4733 8.50296 28.2055 7.87407 29.1098 7.87407C29.5607 7.87407 29.9273 8.0239 30.1688 8.30658C30.4107 8.59218 30.5067 8.99075 30.4374 9.43005Z" fill="#2D3F54"/>
<path id="Vector_3" d="M41.1076 6.33939H39.5119C39.3596 6.33939 39.2166 6.41503 39.1303 6.54158L36.9294 9.78349L35.9965 6.66814C35.9378 6.47321 35.7579 6.33939 35.5543 6.33939H33.9862C33.7956 6.33939 33.6632 6.52558 33.7238 6.70499L35.4815 11.8631L33.8291 14.1959C33.6991 14.3797 33.83 14.6323 34.0545 14.6323H35.6483C35.7996 14.6323 35.9412 14.5586 36.027 14.4345L41.3345 6.77335C41.4616 6.59007 41.3311 6.33939 41.1076 6.33939Z" fill="#2D3F54"/>
<path id="Vector_4" d="M46.3904 3.27226H43.0738C42.8473 3.27226 42.6543 3.43712 42.619 3.66114L41.2778 12.1645C41.2511 12.3323 41.3811 12.4835 41.5503 12.4835H43.2522C43.4103 12.4835 43.5456 12.3681 43.5703 12.211L43.9509 9.80069C43.9858 9.5762 44.1793 9.41134 44.4057 9.41134H45.455C47.6399 9.41134 48.9001 8.3543 49.2298 6.25961C49.3787 5.34319 49.2356 4.62314 48.8065 4.11886C48.3357 3.56513 47.5002 3.27226 46.3904 3.27226ZM46.7729 6.37792C46.5921 7.56782 45.6829 7.56782 44.8033 7.56782H44.3034L44.655 5.34561C44.6758 5.2113 44.7912 5.11238 44.9275 5.11238H45.1568C45.7552 5.11238 46.3205 5.11238 46.6124 5.45374C46.7865 5.65739 46.8394 5.95996 46.7729 6.37792Z" fill="#6B7D92"/>
<path id="Vector_5" d="M56.3018 6.33942H54.7148C54.5785 6.33942 54.4627 6.43834 54.4423 6.57265L54.372 7.0168L54.2605 6.85582C53.9167 6.35688 53.1506 6.19008 52.3854 6.19008C50.6306 6.19008 49.1324 7.51914 48.8405 9.3835C48.6892 10.3135 48.904 11.2028 49.4315 11.8229C49.9164 12.3932 50.6079 12.6307 51.4317 12.6307C52.8456 12.6307 53.6296 11.7216 53.6296 11.7216L53.5588 12.1628C53.5322 12.3316 53.6621 12.4829 53.8323 12.4829H55.2622C55.4887 12.4829 55.6816 12.318 55.717 12.0935L56.5758 6.65847C56.6019 6.49119 56.472 6.33942 56.3018 6.33942ZM54.0883 9.43005C53.9361 10.3373 53.2151 10.9463 52.2967 10.9463C51.8365 10.9463 51.4671 10.7984 51.2304 10.5181C50.9958 10.2398 50.9075 9.84365 50.9812 9.40241C51.1252 8.50296 51.8564 7.87407 52.7607 7.87407C53.2117 7.87407 53.5782 8.0239 53.8197 8.30658C54.0626 8.59218 54.1586 8.99075 54.0883 9.43005Z" fill="#6B7D92"/>
<path id="Vector_6" d="M58.1734 3.50547L56.8123 12.1645C56.7857 12.3322 56.9156 12.4835 57.0848 12.4835H58.4532C58.6806 12.4835 58.8735 12.3187 58.9085 12.0942L60.2506 3.5913C60.2773 3.42353 60.1473 3.27176 59.9781 3.27176H58.4459C58.3106 3.27224 58.1942 3.37116 58.1734 3.50547Z" fill="#6B7D92"/>
<path id="Vector_7" d="M3.85649 14.1362L4.11009 12.5254L3.5452 12.5123H0.847809L2.72236 0.626469C2.72818 0.590588 2.74709 0.557131 2.77472 0.533372C2.80236 0.509613 2.83776 0.496521 2.87461 0.496521H7.42279C8.93271 0.496521 9.97472 0.810724 10.5188 1.43089C10.7738 1.72181 10.9362 2.02583 11.0148 2.3604C11.0972 2.71146 11.0987 3.13088 11.0182 3.64243L11.0124 3.67976V4.00754L11.2674 4.15204C11.4822 4.26598 11.6529 4.39642 11.7838 4.54576C12.002 4.7945 12.1431 5.11065 12.2027 5.48546C12.2643 5.87094 12.244 6.32964 12.1431 6.84894C12.0267 7.44632 11.8386 7.96659 11.5845 8.39232C11.3508 8.78459 11.0531 9.10994 10.6996 9.36208C10.3621 9.60161 9.96114 9.78344 9.50778 9.89981C9.06848 10.0142 8.5676 10.0719 8.01822 10.0719H7.66426C7.41115 10.0719 7.16532 10.1631 6.97234 10.3265C6.77887 10.4933 6.65086 10.7212 6.61159 10.9704L6.58492 11.1154L6.13689 13.9544L6.11652 14.0586C6.11119 14.0916 6.10198 14.1081 6.0884 14.1192C6.07628 14.1294 6.05882 14.1362 6.04185 14.1362H3.85649Z" fill="#253B80"/>
<path id="Vector_8" d="M11.5089 3.71759C11.4953 3.80438 11.4798 3.89312 11.4623 3.98427C10.8625 7.06375 8.81052 8.12758 6.18974 8.12758H4.85535C4.53484 8.12758 4.26476 8.36032 4.21482 8.67646L3.53162 13.0094L3.33816 14.2376C3.30567 14.4451 3.46568 14.6323 3.67515 14.6323H6.04185C6.32211 14.6323 6.56019 14.4286 6.60431 14.1522L6.62759 14.032L7.07319 11.2041L7.1018 11.049C7.14544 10.7716 7.384 10.568 7.66426 10.568H8.01823C10.3112 10.568 12.1063 9.63701 12.6309 6.94302C12.8501 5.81761 12.7366 4.87791 12.1567 4.21702C11.9812 4.01773 11.7634 3.85239 11.5089 3.71759Z" fill="#6B7D92"/>
<path id="Vector_9" d="M10.8814 3.46739C10.7898 3.44072 10.6952 3.41648 10.5983 3.39466C10.5008 3.37333 10.4009 3.35442 10.2981 3.33793C9.93834 3.27974 9.54414 3.25211 9.12181 3.25211H5.55696C5.4692 3.25211 5.3858 3.27199 5.31113 3.30787C5.14675 3.3869 5.02456 3.54255 4.99499 3.73311L4.23663 8.53634L4.21481 8.67647C4.26476 8.36032 4.53483 8.12758 4.85534 8.12758H6.18973C8.81051 8.12758 10.8625 7.06327 11.4623 3.98428C11.4803 3.89312 11.4953 3.80438 11.5089 3.71759C11.3571 3.6371 11.1927 3.56825 11.0157 3.50958C10.9721 3.49503 10.927 3.48097 10.8814 3.46739Z" fill="#213348"/>
<path id="Vector_10" d="M4.99498 3.73311C5.02456 3.54255 5.14675 3.38691 5.31112 3.30836C5.38628 3.27248 5.46919 3.25259 5.55696 3.25259H9.1218C9.54413 3.25259 9.93834 3.28023 10.2981 3.33842C10.4009 3.3549 10.5008 3.37382 10.5983 3.39515C10.6952 3.41697 10.7898 3.44121 10.8814 3.46788C10.927 3.48146 10.9721 3.49552 11.0162 3.50958C11.1932 3.56825 11.3576 3.63759 11.5094 3.7176C11.6878 2.57958 11.5079 1.80474 10.8926 1.10312C10.2142 0.330704 8.98991 1.52588e-05 7.42326 1.52588e-05H2.87508C2.55506 1.52588e-05 2.28207 0.232758 2.23262 0.549385L0.338187 12.5575C0.300851 12.795 0.484136 13.0094 0.723667 13.0094H3.53161L4.23663 8.53634L4.99498 3.73311Z" fill="#2D3F54"/>
</g>
<defs>
<clipPath id="clip0_173_770">
<rect width="60.1212" height="16" fill="white" transform="translate(0.333344 1.52588e-05)"/>
</clipPath>
</defs>
</svg>
