<svg width="21" height="16" viewBox="0 0 21 16" fill="none" xmlns="http://www.w3.org/2000/svg">
<g id="Mastercard-logo 1" clip-path="url(#clip0_173_761)">
<g id="layer1">
<g id="g13">
<g id="g15">
<path id="XMLID_1775_" d="M3.75227 15.9655V14.9036C3.75227 14.4965 3.50449 14.231 3.07971 14.231C2.86732 14.231 2.63723 14.3018 2.47794 14.5319C2.35405 14.3372 2.17705 14.231 1.91157 14.231C1.73458 14.231 1.55759 14.2841 1.41599 14.4788V14.2664H1.04431V15.9655H1.41599V15.0274C1.41599 14.7266 1.57528 14.585 1.82307 14.585C2.07086 14.585 2.19475 14.7443 2.19475 15.0274V15.9655H2.56644V15.0274C2.56644 14.7266 2.74343 14.585 2.97351 14.585C3.2213 14.585 3.3452 14.7443 3.3452 15.0274V15.9655H3.75227ZM9.2567 14.2664H8.65493V13.7531H8.28325V14.2664H7.94697V14.6027H8.28325V15.3814C8.28325 15.7708 8.44254 16.0009 8.86732 16.0009C9.02661 16.0009 9.2036 15.9478 9.3275 15.877L9.2213 15.5584C9.11511 15.6292 8.99121 15.6469 8.90272 15.6469C8.72573 15.6469 8.65493 15.5407 8.65493 15.3637V14.6027H9.2567V14.2664ZM12.4071 14.231C12.1948 14.231 12.0532 14.3372 11.9647 14.4788V14.2664H11.593V15.9655H11.9647V15.0098C11.9647 14.7266 12.0886 14.5673 12.3186 14.5673C12.3894 14.5673 12.4779 14.585 12.5487 14.6027L12.6549 14.2487C12.5841 14.231 12.4779 14.231 12.4071 14.231ZM7.64608 14.408C7.46909 14.2841 7.2213 14.231 6.95582 14.231C6.53104 14.231 6.24785 14.4434 6.24785 14.7797C6.24785 15.0628 6.46024 15.2221 6.83192 15.2752L7.00891 15.2929C7.2036 15.3283 7.3098 15.3814 7.3098 15.4699C7.3098 15.5938 7.1682 15.6823 6.92041 15.6823C6.67263 15.6823 6.47794 15.5938 6.35405 15.5053L6.17706 15.7885C6.37175 15.9301 6.63723 16.0009 6.90272 16.0009C7.3983 16.0009 7.68148 15.7708 7.68148 15.4522C7.68148 15.1513 7.45139 14.992 7.09741 14.939L6.92041 14.9213C6.76112 14.9036 6.63723 14.8682 6.63723 14.762C6.63723 14.6381 6.76113 14.5673 6.95582 14.5673C7.1682 14.5673 7.38059 14.6558 7.48679 14.7089L7.64608 14.408ZM17.5222 14.231C17.3098 14.231 17.1682 14.3372 17.0797 14.4788V14.2664H16.708V15.9655H17.0797V15.0098C17.0797 14.7266 17.2036 14.5673 17.4337 14.5673C17.5045 14.5673 17.593 14.585 17.6638 14.6027L17.77 14.2487C17.6992 14.231 17.593 14.231 17.5222 14.231ZM12.7788 15.1159C12.7788 15.6292 13.1328 16.0009 13.6815 16.0009C13.9293 16.0009 14.1063 15.9478 14.2832 15.8062L14.1063 15.5053C13.9647 15.6115 13.8231 15.6646 13.6638 15.6646C13.3629 15.6646 13.1505 15.4522 13.1505 15.1159C13.1505 14.7974 13.3629 14.585 13.6638 14.5673C13.8231 14.5673 13.9647 14.6204 14.1063 14.7266L14.2832 14.4257C14.1063 14.2841 13.9293 14.231 13.6815 14.231C13.1328 14.231 12.7788 14.6027 12.7788 15.1159ZM16.2125 15.1159V14.2664H15.8408V14.4788C15.7169 14.3195 15.5399 14.231 15.3098 14.231C14.8319 14.231 14.4602 14.6027 14.4602 15.1159C14.4602 15.6292 14.8319 16.0009 15.3098 16.0009C15.5576 16.0009 15.7346 15.9124 15.8408 15.7531V15.9655H16.2125V15.1159ZM14.8496 15.1159C14.8496 14.8151 15.0443 14.5673 15.3629 14.5673C15.6638 14.5673 15.8762 14.7974 15.8762 15.1159C15.8762 15.4168 15.6638 15.6646 15.3629 15.6646C15.0443 15.6469 14.8496 15.4168 14.8496 15.1159ZM10.4071 14.231C9.91157 14.231 9.55759 14.585 9.55759 15.1159C9.55759 15.6469 9.91157 16.0009 10.4248 16.0009C10.6726 16.0009 10.9204 15.9301 11.1151 15.7708L10.9381 15.5053C10.7965 15.6115 10.6195 15.6823 10.4425 15.6823C10.2125 15.6823 9.98236 15.5761 9.92927 15.2752H11.1859C11.1859 15.2221 11.1859 15.1867 11.1859 15.1336C11.2036 14.585 10.885 14.231 10.4071 14.231ZM10.4071 14.5496C10.6372 14.5496 10.7965 14.6912 10.8319 14.9567H9.94697C9.98236 14.7266 10.1417 14.5496 10.4071 14.5496ZM19.6284 15.1159V13.5938H19.2567V14.4788C19.1328 14.3195 18.9558 14.231 18.7257 14.231C18.2479 14.231 17.8762 14.6027 17.8762 15.1159C17.8762 15.6292 18.2479 16.0009 18.7257 16.0009C18.9735 16.0009 19.1505 15.9124 19.2567 15.7531V15.9655H19.6284V15.1159ZM18.2656 15.1159C18.2656 14.8151 18.4602 14.5673 18.7788 14.5673C19.0797 14.5673 19.2921 14.7974 19.2921 15.1159C19.2921 15.4168 19.0797 15.6646 18.7788 15.6646C18.4602 15.6469 18.2656 15.4168 18.2656 15.1159ZM5.84077 15.1159V14.2664H5.46909V14.4788C5.3452 14.3195 5.16821 14.231 4.93812 14.231C4.46024 14.231 4.08856 14.6027 4.08856 15.1159C4.08856 15.6292 4.46024 16.0009 4.93812 16.0009C5.1859 16.0009 5.3629 15.9124 5.46909 15.7531V15.9655H5.84077V15.1159ZM4.46024 15.1159C4.46024 14.8151 4.65493 14.5673 4.97351 14.5673C5.2744 14.5673 5.48679 14.7974 5.48679 15.1159C5.48679 15.4168 5.2744 15.6646 4.97351 15.6646C4.65493 15.6469 4.46024 15.4168 4.46024 15.1159Z" fill="black"/>
</g>
<g id="XMLID_328_">
<path id="rect19" d="M13.0982 1.36295H7.52261V11.3813H13.0982V1.36295Z" fill="#76889D"/>
<path id="XMLID_330_" d="M7.87663 6.37212C7.87663 4.33659 8.83244 2.53116 10.3016 1.36294C9.22185 0.513326 7.85893 1.52588e-05 6.3721 1.52588e-05C2.84975 1.52588e-05 0 2.84976 0 6.37212C0 9.89448 2.84975 12.7442 6.3721 12.7442C7.85893 12.7442 9.22185 12.2309 10.3016 11.3813C8.83244 10.2308 7.87663 8.40765 7.87663 6.37212Z" fill="#3B4D62"/>
<path id="path22" d="M20.6208 6.37212C20.6208 9.89448 17.7711 12.7442 14.2487 12.7442C12.7619 12.7442 11.399 12.2309 10.3193 11.3813C11.8061 10.2131 12.7442 8.40765 12.7442 6.37212C12.7442 4.33659 11.7884 2.53116 10.3193 1.36294C11.399 0.513326 12.7619 1.52588e-05 14.2487 1.52588e-05C17.7711 1.52588e-05 20.6208 2.86746 20.6208 6.37212Z" fill="#9BADC2"/>
</g>
</g>
</g>
</g>
<defs>
<clipPath id="clip0_173_761">
<rect width="20.6195" height="16" fill="white"/>
</clipPath>
</defs>
</svg>
