<svg width="50" height="16" viewBox="0 0 50 16" fill="none" xmlns="http://www.w3.org/2000/svg">
<g clip-path="url(#clip0_173_754)">
<path d="M21.3199 15.7692H17.3344L19.8272 0.280762H23.8126L21.3199 15.7692Z" fill="#36485D"/>
<path d="M35.7679 0.659404C34.9818 0.346018 33.7349 0 32.1932 0C28.2573 0 25.4857 2.10895 25.4687 5.12412C25.436 7.3487 27.4531 8.58429 28.9617 9.32604C30.5037 10.084 31.0278 10.5787 31.0278 11.2543C31.0121 12.2919 29.7818 12.7702 28.6344 12.7702C27.0432 12.7702 26.1906 12.5236 24.8949 11.9464L24.3701 11.6989L23.8123 15.1757C24.7471 15.6036 26.4693 15.9834 28.2573 16C32.4392 16 35.1618 13.9237 35.194 10.7105C35.21 8.94739 34.1449 7.59639 31.8486 6.49242C30.4546 5.78374 29.6009 5.30589 29.6009 4.58079C29.6173 3.9216 30.323 3.24643 31.8966 3.24643C33.1922 3.21336 34.1442 3.52631 34.8654 3.83948L35.2259 4.00394L35.7679 0.659404Z" fill="#36485D"/>
<path d="M41.065 10.2822C41.3932 9.3924 42.6562 5.94865 42.6562 5.94865C42.6396 5.98172 42.9838 5.04244 43.1806 4.46582L43.4591 5.80039C43.4591 5.80039 44.2139 9.50781 44.3777 10.2822C43.7549 10.2822 41.8522 10.2822 41.065 10.2822ZM45.9846 0.280762H42.9018C41.9512 0.280762 41.2289 0.560641 40.8187 1.56584L34.8987 15.769H39.0806C39.0806 15.769 39.7691 13.8573 39.9171 13.4456C40.3759 13.4456 44.444 13.4456 45.0342 13.4456C45.1486 13.9894 45.5097 15.769 45.5097 15.769H49.2L45.9846 0.280762Z" fill="#36485D"/>
<path d="M14.0059 0.280777L10.1027 10.8424L9.67618 8.70038C8.95456 6.22877 6.69143 3.54341 4.16589 2.20818L7.74105 15.7528H11.9557L18.2202 0.280777H14.0059Z" fill="#36485D"/>
<path d="M6.47838 0.280777H0.0656053L0 0.593746C5.00237 1.87913 8.31534 4.9775 9.67649 8.7016L8.28243 1.58281C8.05292 0.593527 7.3476 0.31341 6.47838 0.280777Z" fill="#A1B3C8"/>
</g>
<defs>
<clipPath id="clip0_173_754">
<rect width="49.2" height="16" fill="white"/>
</clipPath>
</defs>
</svg>
