<svg width="133" height="36" viewBox="0 0 133 36" fill="none" xmlns="http://www.w3.org/2000/svg">
<circle cx="8" cy="8" r="8" fill="#F5B3C9"/>
<circle cx="8" cy="28" r="8" fill="#5856BB"/>
<circle cx="28" cy="8" r="8" fill="#9E9DFB"/>
<circle cx="28" cy="28" r="8" fill="#F5B3C9"/>
<path d="M62.1282 27.288C63.4082 27.288 64.5522 27.072 65.5602 26.64C66.5842 26.208 67.4482 25.64 68.1522 24.936C68.8562 24.216 69.3602 23.432 69.6642 22.584L66.7362 21.216C66.3842 22.112 65.8082 22.856 65.0082 23.448C64.2242 24.024 63.2642 24.312 62.1282 24.312C61.0082 24.312 60.0242 24.048 59.1762 23.52C58.3282 22.992 57.6642 22.264 57.1842 21.336C56.7042 20.392 56.4642 19.296 56.4642 18.048C56.4642 16.8 56.7042 15.712 57.1842 14.784C57.6642 13.84 58.3282 13.112 59.1762 12.6C60.0242 12.072 61.0082 11.808 62.1282 11.808C63.2642 11.808 64.2242 12.104 65.0082 12.696C65.8082 13.272 66.3842 14.008 66.7362 14.904L69.6642 13.536C69.3602 12.688 68.8562 11.912 68.1522 11.208C67.4482 10.488 66.5842 9.912 65.5602 9.48C64.5522 9.048 63.4082 8.832 62.1282 8.832C60.8482 8.832 59.6642 9.064 58.5762 9.528C57.4882 9.976 56.5442 10.616 55.7442 11.448C54.9442 12.264 54.3202 13.24 53.8722 14.376C53.4242 15.496 53.2002 16.72 53.2002 18.048C53.2002 19.376 53.4242 20.608 53.8722 21.744C54.3202 22.864 54.9442 23.84 55.7442 24.672C56.5442 25.504 57.4882 26.152 58.5762 26.616C59.6642 27.064 60.8482 27.288 62.1282 27.288Z" fill="#252E4A"/>
<path d="M77.6998 27.288C78.9638 27.288 80.1158 27 81.1558 26.424C82.1958 25.832 83.0278 25.024 83.6518 24C84.2758 22.96 84.5878 21.784 84.5878 20.472C84.5878 19.16 84.2758 17.992 83.6518 16.968C83.0438 15.944 82.2198 15.136 81.1798 14.544C80.1398 13.952 78.9798 13.656 77.6998 13.656C76.4038 13.656 75.2358 13.952 74.1958 14.544C73.1558 15.136 72.3238 15.944 71.6998 16.968C71.0918 17.992 70.7878 19.16 70.7878 20.472C70.7878 21.784 71.0918 22.952 71.6998 23.976C72.3238 25 73.1558 25.808 74.1958 26.4C75.2518 26.992 76.4198 27.288 77.6998 27.288ZM77.6998 24.408C76.9958 24.408 76.3638 24.24 75.8038 23.904C75.2598 23.568 74.8278 23.104 74.5078 22.512C74.2038 21.904 74.0518 21.224 74.0518 20.472C74.0518 19.72 74.2038 19.048 74.5078 18.456C74.8278 17.864 75.2598 17.4 75.8038 17.064C76.3638 16.712 76.9958 16.536 77.6998 16.536C78.4038 16.536 79.0198 16.712 79.5478 17.064C80.0918 17.4 80.5158 17.864 80.8198 18.456C81.1398 19.048 81.2998 19.72 81.2998 20.472C81.2998 21.224 81.1398 21.904 80.8198 22.512C80.5158 23.104 80.0918 23.568 79.5478 23.904C79.0198 24.24 78.4038 24.408 77.6998 24.408Z" fill="#252E4A"/>
<path d="M86.472 27H89.616V8.832H86.472V27Z" fill="#252E4A"/>
<path d="M98.2109 27.288C99.5389 27.288 100.699 26.992 101.691 26.4C102.699 25.792 103.403 25.024 103.803 24.096L101.259 22.848C100.971 23.344 100.571 23.752 100.059 24.072C99.5629 24.376 98.9549 24.528 98.2349 24.528C97.2909 24.528 96.4989 24.24 95.8589 23.664C95.2189 23.088 94.8509 22.32 94.7549 21.36H104.163C104.227 21.184 104.267 20.984 104.283 20.76C104.315 20.52 104.331 20.28 104.331 20.04C104.331 18.872 104.083 17.808 103.587 16.848C103.091 15.888 102.371 15.12 101.427 14.544C100.483 13.952 99.3309 13.656 97.9709 13.656C96.7549 13.656 95.6509 13.952 94.6589 14.544C93.6829 15.136 92.9069 15.944 92.3309 16.968C91.7709 17.976 91.4909 19.136 91.4909 20.448C91.4909 21.712 91.7709 22.864 92.3309 23.904C92.8909 24.944 93.6749 25.768 94.6829 26.376C95.6909 26.984 96.8669 27.288 98.2109 27.288ZM97.9709 16.248C98.8029 16.248 99.4909 16.504 100.035 17.016C100.595 17.512 100.907 18.16 100.971 18.96H94.8269C95.0029 18.096 95.3709 17.432 95.9309 16.968C96.5069 16.488 97.1869 16.248 97.9709 16.248Z" fill="#252E4A"/>
<path d="M112.598 27.288C113.862 27.288 115.014 27 116.054 26.424C117.094 25.832 117.926 25.024 118.55 24C119.174 22.96 119.486 21.784 119.486 20.472C119.486 19.16 119.174 17.992 118.55 16.968C117.942 15.944 117.118 15.136 116.078 14.544C115.038 13.952 113.878 13.656 112.598 13.656C111.302 13.656 110.134 13.952 109.094 14.544C108.054 15.136 107.222 15.944 106.598 16.968C105.99 17.992 105.686 19.16 105.686 20.472C105.686 21.784 105.99 22.952 106.598 23.976C107.222 25 108.054 25.808 109.094 26.4C110.15 26.992 111.318 27.288 112.598 27.288ZM112.598 24.408C111.894 24.408 111.262 24.24 110.702 23.904C110.158 23.568 109.726 23.104 109.406 22.512C109.102 21.904 108.95 21.224 108.95 20.472C108.95 19.72 109.102 19.048 109.406 18.456C109.726 17.864 110.158 17.4 110.702 17.064C111.262 16.712 111.894 16.536 112.598 16.536C113.302 16.536 113.918 16.712 114.446 17.064C114.99 17.4 115.414 17.864 115.718 18.456C116.038 19.048 116.198 19.72 116.198 20.472C116.198 21.224 116.038 21.904 115.718 22.512C115.414 23.104 114.99 23.568 114.446 23.904C113.918 24.24 113.302 24.408 112.598 24.408Z" fill="#252E4A"/>
<path d="M126.338 27.288C127.33 27.288 128.194 27.12 128.93 26.784C129.666 26.448 130.242 25.984 130.658 25.392C131.074 24.784 131.282 24.088 131.282 23.304C131.282 22.392 130.994 21.608 130.418 20.952C129.842 20.296 129.01 19.816 127.922 19.512L125.834 18.888C125.386 18.76 125.018 18.592 124.73 18.384C124.442 18.176 124.298 17.888 124.298 17.52C124.298 17.136 124.45 16.824 124.754 16.584C125.058 16.344 125.474 16.224 126.002 16.224C126.658 16.224 127.25 16.4 127.778 16.752C128.322 17.104 128.698 17.576 128.906 18.168L131.306 17.04C130.906 15.984 130.234 15.16 129.29 14.568C128.346 13.96 127.258 13.656 126.026 13.656C125.082 13.656 124.242 13.824 123.506 14.16C122.786 14.496 122.218 14.968 121.802 15.576C121.402 16.168 121.202 16.864 121.202 17.664C121.202 18.56 121.482 19.336 122.042 19.992C122.618 20.648 123.458 21.136 124.562 21.456L126.698 22.056C127.114 22.168 127.466 22.336 127.754 22.56C128.058 22.768 128.21 23.056 128.21 23.424C128.21 23.856 128.034 24.2 127.682 24.456C127.346 24.696 126.898 24.816 126.338 24.816C125.602 24.816 124.938 24.608 124.346 24.192C123.754 23.776 123.282 23.2 122.93 22.464L120.578 23.592C120.962 24.712 121.666 25.608 122.69 26.28C123.73 26.952 124.946 27.288 126.338 27.288Z" fill="#252E4A"/>
</svg>
